<svg xmlns="http://www.w3.org/2000/svg" width="32" height="32" viewBox="0 0 32 32"><title>soc034 - Regular</title><g id="soc034"><g id="Regular-4" data-name="Regular"><path fill="currentColor" d="M23.656,4.8H28.88V19.736H23.656Zm-3.51,15.946a6.346,6.346,0,0,1-.749,3.135,5.151,5.151,0,0,1-2.138,2.094,8.908,8.908,0,0,1-2.8.871,41.442,41.442,0,0,1-5.444.253H2.745V4.9H8.829a38.5,38.5,0,0,1,5.245.237,7.887,7.887,0,0,1,2.557.832A4.788,4.788,0,0,1,18.51,7.8a5.392,5.392,0,0,1,.639,2.64,4.437,4.437,0,0,1-.959,3,6.053,6.053,0,0,1-3.069,1.691,5.249,5.249,0,0,1,3.692,1.664A5.7,5.7,0,0,1,20.146,20.744ZM8.36,14.275H9.572a6.65,6.65,0,0,0,3.064-.49,1.806,1.806,0,0,0,.832-1.7,1.932,1.932,0,0,0-.777-1.758,6.08,6.08,0,0,0-3.03-.507H8.36Zm6.05,6.475a2.193,2.193,0,0,0-.815-1.956,5.852,5.852,0,0,0-3.025-.551h-2.2v4.848h2.11a6.175,6.175,0,0,0,3.042-.54A1.933,1.933,0,0,0,14.41,20.75Zm11.858.479a2.987,2.987,0,1,0,2.987,2.987A2.982,2.982,0,0,0,26.268,21.229Z"/></g></g></svg>