<svg xmlns="http://www.w3.org/2000/svg" enable-background="new 0 0 32 32" viewBox="0 0 32 32"><path fill="currentColor" d="M26,32H6c-3.314,0-6-2.686-6-6V6c0-3.314,2.686-6,6-6h20c3.314,0,6,2.686,6,6v20C32,29.314,29.314,32,26,32z"/><path fill="#FFF" d="M16.507,9.028c-1.058,0-2.063,0.22-2.975,0.614L11.886,8h-0.004C10.144,8.76,8.75,10.158,8,11.9l1.65,1.645l-0.002-0.002c0.752-1.74,2.145-3.14,3.882-3.9l6.096,6.08c-1.737,0.76-3.132,2.158-3.882,3.9l-6.096-6.076c-0.398,0.913-0.635,1.907-0.635,2.967c0,4.137,3.354,7.486,7.494,7.486C20.645,24,24,20.649,24,16.514C24,12.379,20.645,9.028,16.507,9.028z M17.806,20.063c0.437-1.009,1.246-1.823,2.254-2.266h0.002l0.591,2.855L17.806,20.063z"/></svg>