<?xml version="1.0" encoding="utf-8"?>
<svg width="108" height="17" viewBox="0 0 108 17" fill="none" xmlns="http://www.w3.org/2000/svg">
<path d="M4.368 17C4.096 17 3.88 16.92 3.72 16.76C3.56 16.6 3.464 16.416 3.432 16.208L0.816 0.871999C0.8 0.823999 0.792 0.791999 0.792 0.775999C0.792 0.743999 0.792 0.719999 0.792 0.704C0.792 0.575999 0.84 0.463999 0.936 0.368C1.048 0.255999 1.168 0.199999 1.296 0.199999H4.272C4.72 0.199999 4.968 0.375999 5.016 0.727999L6.576 10.088L8.304 4.568C8.352 4.44 8.432 4.304 8.544 4.16C8.656 4 8.84 3.92 9.096 3.92H10.824C11.096 3.92 11.288 4 11.4 4.16C11.512 4.304 11.584 4.44 11.616 4.568L13.344 10.088L14.904 0.727999C14.952 0.375999 15.2 0.199999 15.648 0.199999H18.624C18.768 0.199999 18.888 0.255999 18.984 0.368C19.096 0.463999 19.152 0.575999 19.152 0.704C19.152 0.719999 19.144 0.743999 19.128 0.775999C19.128 0.791999 19.128 0.823999 19.128 0.871999L16.512 16.208C16.48 16.416 16.384 16.6 16.224 16.76C16.064 16.92 15.848 17 15.576 17H13.296C13.024 17 12.816 16.928 12.672 16.784C12.528 16.64 12.432 16.504 12.384 16.376L9.96 9.512L7.536 16.376C7.488 16.504 7.392 16.64 7.248 16.784C7.12 16.928 6.92 17 6.648 17H4.368ZM19.9856 17C19.8576 17 19.7376 16.952 19.6256 16.856C19.5296 16.744 19.4816 16.624 19.4816 16.496C19.4816 16.416 19.4896 16.344 19.5056 16.28L25.1456 0.871999C25.1936 0.695999 25.2896 0.543999 25.4336 0.415999C25.5936 0.271999 25.8096 0.199999 26.0816 0.199999H29.6336C29.9056 0.199999 30.1136 0.271999 30.2576 0.415999C30.4176 0.543999 30.5216 0.695999 30.5696 0.871999L36.1856 16.28C36.2176 16.344 36.2336 16.416 36.2336 16.496C36.2336 16.624 36.1776 16.744 36.0656 16.856C35.9696 16.952 35.8496 17 35.7056 17H32.7536C32.5136 17 32.3296 16.944 32.2016 16.832C32.0896 16.704 32.0176 16.592 31.9856 16.496L31.0496 14.048H24.6416L23.7296 16.496C23.6976 16.592 23.6256 16.704 23.5136 16.832C23.4016 16.944 23.2096 17 22.9376 17H19.9856ZM25.6256 10.592H30.0896L27.8576 4.256L25.6256 10.592ZM38.7253 17C38.5493 17 38.4053 16.944 38.2933 16.832C38.1813 16.704 38.1253 16.56 38.1253 16.4V0.8C38.1253 0.623999 38.1813 0.479999 38.2933 0.368C38.4053 0.255999 38.5493 0.199999 38.7253 0.199999H45.2533C47.3333 0.199999 48.9653 0.679999 50.1493 1.64C51.3333 2.584 51.9253 3.928 51.9253 5.672C51.9253 6.808 51.6533 7.768 51.1093 8.552C50.5653 9.336 49.8453 9.928 48.9493 10.328L52.2373 16.232C52.2853 16.328 52.3093 16.416 52.3093 16.496C52.3093 16.624 52.2533 16.744 52.1413 16.856C52.0453 16.952 51.9333 17 51.8053 17H48.6133C48.3093 17 48.0853 16.928 47.9413 16.784C47.7973 16.624 47.6933 16.48 47.6293 16.352L44.8933 11.072H42.4453V16.4C42.4453 16.56 42.3813 16.704 42.2533 16.832C42.1413 16.944 41.9973 17 41.8213 17H38.7253ZM42.4453 7.664H45.2053C45.9573 7.664 46.5173 7.48 46.8853 7.112C47.2693 6.744 47.4613 6.248 47.4613 5.624C47.4613 5 47.2773 4.496 46.9093 4.112C46.5573 3.728 45.9893 3.536 45.2053 3.536H42.4453V7.664ZM55.3191 17C55.1431 17 54.9991 16.944 54.8871 16.832C54.7751 16.704 54.7191 16.56 54.7191 16.4V0.8C54.7191 0.623999 54.7751 0.479999 54.8871 0.368C54.9991 0.255999 55.1431 0.199999 55.3191 0.199999H61.8471C63.9271 0.199999 65.5591 0.679999 66.7431 1.64C67.9271 2.584 68.5191 3.928 68.5191 5.672C68.5191 6.808 68.2471 7.768 67.7031 8.552C67.1591 9.336 66.4391 9.928 65.5431 10.328L68.8311 16.232C68.8791 16.328 68.9031 16.416 68.9031 16.496C68.9031 16.624 68.8471 16.744 68.7351 16.856C68.6391 16.952 68.5271 17 68.3991 17H65.2071C64.9031 17 64.6791 16.928 64.5351 16.784C64.3911 16.624 64.2871 16.48 64.2231 16.352L61.4871 11.072H59.0391V16.4C59.0391 16.56 58.9751 16.704 58.8471 16.832C58.7351 16.944 58.5911 17 58.4151 17H55.3191ZM59.0391 7.664H61.7991C62.5511 7.664 63.1111 7.48 63.4791 7.112C63.8631 6.744 64.0551 6.248 64.0551 5.624C64.0551 5 63.8711 4.496 63.5031 4.112C63.1511 3.728 62.5831 3.536 61.7991 3.536H59.0391V7.664ZM71.9128 17C71.7368 17 71.5928 16.944 71.4808 16.832C71.3688 16.704 71.3128 16.56 71.3128 16.4V0.8C71.3128 0.623999 71.3688 0.479999 71.4808 0.368C71.5928 0.255999 71.7368 0.199999 71.9128 0.199999H83.1208C83.2968 0.199999 83.4408 0.255999 83.5528 0.368C83.6648 0.479999 83.7208 0.623999 83.7208 0.8V3.056C83.7208 3.232 83.6648 3.376 83.5528 3.488C83.4408 3.6 83.2968 3.656 83.1208 3.656H75.4648V6.896H82.5928C82.7688 6.896 82.9128 6.96 83.0248 7.088C83.1368 7.2 83.1928 7.344 83.1928 7.52V9.608C83.1928 9.768 83.1368 9.912 83.0248 10.04C82.9128 10.152 82.7688 10.208 82.5928 10.208H75.4648V13.544H83.3128C83.4888 13.544 83.6328 13.6 83.7448 13.712C83.8568 13.824 83.9128 13.968 83.9128 14.144V16.4C83.9128 16.56 83.8568 16.704 83.7448 16.832C83.6328 16.944 83.4888 17 83.3128 17H71.9128ZM87.2409 17C87.0649 17 86.9209 16.944 86.8089 16.832C86.6969 16.704 86.6409 16.56 86.6409 16.4V0.8C86.6409 0.623999 86.6969 0.479999 86.8089 0.368C86.9209 0.255999 87.0649 0.199999 87.2409 0.199999H89.7849C90.0569 0.199999 90.2489 0.263999 90.3609 0.391999C90.4889 0.503999 90.5689 0.591999 90.6009 0.655999L96.4569 9.872V0.8C96.4569 0.623999 96.5129 0.479999 96.6249 0.368C96.7369 0.255999 96.8809 0.199999 97.0569 0.199999H99.9369C100.113 0.199999 100.257 0.255999 100.369 0.368C100.481 0.479999 100.537 0.623999 100.537 0.8V16.376C100.537 16.552 100.481 16.704 100.369 16.832C100.257 16.944 100.113 17 99.9369 17H97.3689C97.1129 17 96.9209 16.936 96.7929 16.808C96.6809 16.68 96.6089 16.592 96.5769 16.544L90.7209 7.664V16.4C90.7209 16.56 90.6649 16.704 90.5529 16.832C90.4409 16.944 90.2969 17 90.1209 17H87.2409Z" fill="#2E3131"/>
<path d="M104.107 17C103.931 17 103.787 16.944 103.675 16.832C103.563 16.704 103.507 16.56 103.507 16.4V13.352C103.507 13.176 103.563 13.032 103.675 12.92C103.787 12.808 103.931 12.752 104.107 12.752H107.155C107.315 12.752 107.451 12.808 107.563 12.92C107.691 13.032 107.755 13.176 107.755 13.352V16.4C107.755 16.56 107.691 16.704 107.563 16.832C107.451 16.944 107.315 17 107.155 17H104.107Z" fill="#2F52E0"/>
</svg>
