<?xml version="1.0" encoding="utf-8"?>
<svg width="20" height="16" viewBox="0 0 20 16" fill="none" xmlns="http://www.w3.org/2000/svg">
<g clip-path="url(#clip0)">
<path opacity="0.4" d="M20 13.167V14.167C20 14.3659 19.921 14.5567 19.7803 14.6973C19.6397 14.838 19.4489 14.917 19.25 14.917H9.75C9.55109 14.917 9.36032 14.838 9.21967 14.6973C9.07902 14.5567 9 14.3659 9 14.167V13.167C9 12.9681 9.07902 12.7773 9.21967 12.6367C9.36032 12.496 9.55109 12.417 9.75 12.417H19.25C19.4489 12.417 19.6397 12.496 19.7803 12.6367C19.921 12.7773 20 12.9681 20 13.167Z" fill="#2FE6A3"/>
<path d="M0.928403 14.5205L0.219028 13.8124C0.0787685 13.6718 0 13.4813 0 13.2827C0 13.0841 0.0787685 12.8937 0.219028 12.753L5.03153 7.9168L0.219028 3.08118C0.0787685 2.94058 0 2.75009 0 2.55149C0 2.35289 0.0787685 2.1624 0.219028 2.0218L0.928403 1.31243C1.06905 1.17178 1.25981 1.09277 1.45872 1.09277C1.65762 1.09277 1.84838 1.17178 1.98903 1.31243L8.06278 7.38649C8.20342 7.52714 8.28243 7.7179 8.28243 7.9168C8.28243 8.1157 8.20342 8.30646 8.06278 8.44711L1.98903 14.5205C1.84838 14.6612 1.65762 14.7402 1.45872 14.7402C1.25981 14.7402 1.06905 14.6612 0.928403 14.5205Z" fill="#2FE6A3"/>
</g>
<defs>
<clipPath id="clip0">
<rect width="20" height="16" fill="white"/>
</clipPath>
</defs>
</svg>
