<svg width="40" height="40" viewBox="0 0 40 40" fill="none" xmlns="http://www.w3.org/2000/svg">
<g clip-path="url(#clip0)">
<path d="M14.2449 18.1711C14.1579 18.026 14.017 17.9212 13.853 17.8797C13.689 17.8382 13.5152 17.8633 13.3697 17.9495L5.92969 22.3799C5.8351 22.4368 5.75685 22.5172 5.70251 22.6133C5.64818 22.7094 5.61963 22.8179 5.61963 22.9283C5.61963 23.0387 5.64818 23.1472 5.70251 23.2433C5.75685 23.3394 5.8351 23.4198 5.92969 23.4767L13.3697 27.9071C13.4418 27.9573 13.5235 27.9921 13.6096 28.0094C13.6958 28.0267 13.7846 28.0261 13.8705 28.0075C13.9564 27.989 14.0375 27.953 14.1089 27.9017C14.1802 27.8504 14.2403 27.785 14.2853 27.7096C14.3302 27.6341 14.3592 27.5501 14.3703 27.463C14.3815 27.3758 14.3745 27.2873 14.3499 27.2029C14.3254 27.1186 14.2837 27.0402 14.2275 26.9726C14.1713 26.9051 14.1018 26.8498 14.0233 26.8103L7.50569 22.9319L14.0233 19.0503C14.0957 19.0072 14.1589 18.9503 14.2092 18.8827C14.2595 18.8152 14.2961 18.7384 14.3166 18.6567C14.3372 18.575 14.3415 18.4901 14.3292 18.4068C14.3169 18.3234 14.2882 18.2433 14.2449 18.1711Z" fill="#2F52E0"/>
<path d="M25.7551 27.6855C25.8421 27.8307 25.983 27.9354 26.147 27.977C26.311 28.0185 26.4847 27.9934 26.6303 27.9071L34.0703 23.4767C34.1649 23.4198 34.2432 23.3394 34.2975 23.2433C34.3518 23.1472 34.3804 23.0387 34.3804 22.9283C34.3804 22.818 34.3518 22.7094 34.2975 22.6133C34.2432 22.5173 34.1649 22.4368 34.0703 22.3799L26.6303 17.9495C26.5582 17.8993 26.4765 17.8645 26.3904 17.8472C26.3042 17.8299 26.2154 17.8306 26.1295 17.8491C26.0437 17.8676 25.9625 17.9037 25.8911 17.9549C25.8198 18.0062 25.7597 18.0716 25.7147 18.1471C25.6697 18.2226 25.6408 18.3065 25.6297 18.3937C25.6185 18.4808 25.6255 18.5694 25.6501 18.6537C25.6746 18.7381 25.7163 18.8165 25.7725 18.884C25.8287 18.9516 25.8982 19.0068 25.9767 19.0463L32.4943 22.9279L25.9767 26.8095C25.8314 26.8965 25.7264 27.0376 25.6849 27.2018C25.6434 27.3659 25.6686 27.5399 25.7551 27.6855Z" fill="#2F52E0"/>
<path d="M22.445 18.1416L16.4946 27.0024C16.4407 27.0717 16.4017 27.1513 16.3799 27.2364C16.3581 27.3214 16.354 27.41 16.368 27.4967C16.3819 27.5834 16.4135 27.6662 16.4608 27.7402C16.5081 27.8141 16.5701 27.8775 16.643 27.9265C16.7159 27.9754 16.798 28.0088 16.8844 28.0247C16.9707 28.0405 17.0594 28.0384 17.1449 28.0185C17.2304 27.9986 17.3109 27.9614 17.3813 27.9091C17.4518 27.8567 17.5108 27.7905 17.5546 27.7144L23.505 18.8536C23.5588 18.7843 23.5979 18.7046 23.6197 18.6196C23.6415 18.5346 23.6455 18.446 23.6316 18.3593C23.6177 18.2726 23.5861 18.1897 23.5387 18.1158C23.4914 18.0419 23.4294 17.9785 23.3565 17.9295C23.2837 17.8806 23.2015 17.8472 23.1152 17.8313C23.0288 17.8155 22.9402 17.8176 22.8547 17.8374C22.7692 17.8573 22.6887 17.8946 22.6182 17.9469C22.5477 17.9992 22.4888 18.0655 22.445 18.1416Z" fill="#2F52E0"/>
<path d="M39.3598 0H0.639786C0.461423 0.00890765 0.293876 0.0881967 0.173896 0.220474C0.0539167 0.352752 -0.00869852 0.527217 -0.000214312 0.7056V39.2944C-0.00869852 39.4728 0.0539167 39.6473 0.173896 39.7795C0.293876 39.9118 0.461423 39.9911 0.639786 40H39.3598C39.5381 39.9911 39.7057 39.9118 39.8257 39.7795C39.9457 39.6473 40.0083 39.4728 39.9998 39.2944V31.7648C39.9998 31.5951 39.9324 31.4323 39.8123 31.3123C39.6923 31.1922 39.5295 31.1248 39.3598 31.1248C39.19 31.1248 39.0273 31.1922 38.9072 31.3123C38.7872 31.4323 38.7198 31.5951 38.7198 31.7648V38.588H1.27979V7.0592H38.7198V28.9408C38.7198 29.1105 38.7872 29.2733 38.9072 29.3933C39.0273 29.5134 39.19 29.5808 39.3598 29.5808C39.5295 29.5808 39.6923 29.5134 39.8123 29.3933C39.9324 29.2733 39.9998 29.1105 39.9998 28.9408V0.7056C40.0083 0.527217 39.9457 0.352752 39.8257 0.220474C39.7057 0.0881967 39.5381 0.00890765 39.3598 0ZM1.27979 1.412H24.8934V5.6472H1.27979V1.412ZM26.1734 5.6472V1.412H38.7198V5.6472H26.1734Z" fill="#2F52E0"/>
<path d="M32.4679 2.51123C32.3333 2.51123 32.2016 2.55116 32.0897 2.62597C31.9777 2.70077 31.8905 2.8071 31.8389 2.9315C31.7874 3.0559 31.7739 3.19279 31.8002 3.32485C31.8265 3.45691 31.8913 3.57822 31.9865 3.67343C32.0817 3.76864 32.203 3.83348 32.3351 3.85975C32.4671 3.88602 32.604 3.87254 32.7284 3.82101C32.8528 3.76948 32.9592 3.68222 33.034 3.57026C33.1088 3.45831 33.1487 3.32668 33.1487 3.19203C33.1485 3.01154 33.0767 2.8385 32.9491 2.71087C32.8214 2.58324 32.6484 2.51144 32.4679 2.51123Z" fill="#2F52E0"/>
<path d="M28.9782 2.51123C28.8435 2.51123 28.7119 2.55116 28.5999 2.62597C28.488 2.70077 28.4007 2.8071 28.3492 2.9315C28.2977 3.0559 28.2842 3.19279 28.3104 3.32485C28.3367 3.45691 28.4015 3.57822 28.4967 3.67343C28.592 3.76864 28.7133 3.83348 28.8453 3.85975C28.9774 3.88602 29.1143 3.87254 29.2387 3.82101C29.3631 3.76948 29.4694 3.68222 29.5442 3.57026C29.619 3.45831 29.659 3.32668 29.659 3.19203C29.6587 3.01154 29.5869 2.8385 29.4593 2.71087C29.3317 2.58324 29.1587 2.51144 28.9782 2.51123Z" fill="#2F52E0"/>
<path d="M35.9562 2.51123C35.8215 2.51123 35.6899 2.55116 35.5779 2.62597C35.466 2.70077 35.3787 2.8071 35.3272 2.9315C35.2757 3.0559 35.2622 3.19279 35.2885 3.32485C35.3147 3.45691 35.3796 3.57822 35.4748 3.67343C35.57 3.76864 35.6913 3.83348 35.8234 3.85975C35.9554 3.88602 36.0923 3.87254 36.2167 3.82101C36.3411 3.76948 36.4475 3.68222 36.5223 3.57026C36.5971 3.45831 36.637 3.32668 36.637 3.19203C36.6368 3.01154 36.565 2.8385 36.4373 2.71087C36.3097 2.58324 36.1367 2.51144 35.9562 2.51123Z" fill="#2F52E0"/>
</g>
<defs>
<clipPath id="clip0">
<rect width="40" height="40" fill="white"/>
</clipPath>
</defs>
</svg>
