<?xml version="1.0" encoding="utf-8"?>
<svg width="40" height="40" viewBox="0 0 40 40" fill="none" xmlns="http://www.w3.org/2000/svg">
<g clip-path="url(#clip0)">
<path d="M36.8088 9.788C36.9785 9.788 37.1413 9.72057 37.2613 9.60055C37.3814 9.48053 37.4488 9.31774 37.4488 9.148V6.3832H39.36C39.5297 6.3832 39.6925 6.31577 39.8125 6.19575C39.9326 6.07573 40 5.91294 40 5.7432V0.64C40 0.470261 39.9326 0.307475 39.8125 0.187452C39.6925 0.0674284 39.5297 0 39.36 0L34.2552 0C34.0855 0 33.9227 0.0674284 33.8027 0.187452C33.6826 0.307475 33.6152 0.470261 33.6152 0.64V2.5528H6.3832V0.64C6.3832 0.470261 6.31577 0.307475 6.19575 0.187452C6.07573 0.0674284 5.91294 0 5.7432 0L0.64 0C0.470261 0 0.307475 0.0674284 0.187452 0.187452C0.0674284 0.307475 0 0.470261 0 0.64L0 5.7448C0 5.91454 0.0674284 6.07733 0.187452 6.19735C0.307475 6.31737 0.470261 6.3848 0.64 6.3848H2.5528V33.6168H0.64C0.470261 33.6168 0.307475 33.6842 0.187452 33.8043C0.0674284 33.9243 0 34.0871 0 34.2568L0 39.36C0 39.5297 0.0674284 39.6925 0.187452 39.8125C0.307475 39.9326 0.470261 40 0.64 40H5.7448C5.91454 40 6.07733 39.9326 6.19735 39.8125C6.31737 39.6925 6.3848 39.5297 6.3848 39.36V37.4472H33.6168V39.36C33.6168 39.5297 33.6842 39.6925 33.8043 39.8125C33.9243 39.9326 34.0871 40 34.2568 40H39.36C39.5297 40 39.6925 39.9326 39.8125 39.8125C39.9326 39.6925 40 39.5297 40 39.36V34.2552C40 34.0855 39.9326 33.9227 39.8125 33.8027C39.6925 33.6826 39.5297 33.6152 39.36 33.6152H37.4472V11.7024C37.4472 11.5327 37.3798 11.3699 37.2597 11.2499C37.1397 11.1298 36.9769 11.0624 36.8072 11.0624C36.6375 11.0624 36.4747 11.1298 36.3547 11.2499C36.2346 11.3699 36.1672 11.5327 36.1672 11.7024V33.6168H34.2552C34.0855 33.6168 33.9227 33.6842 33.8027 33.8043C33.6826 33.9243 33.6152 34.0871 33.6152 34.2568V36.172H6.3832V34.2552C6.3832 34.0855 6.31577 33.9227 6.19575 33.8027C6.07573 33.6826 5.91294 33.6152 5.7432 33.6152H3.8296V6.3832H5.7448C5.91454 6.3832 6.07733 6.31577 6.19735 6.19575C6.31737 6.07573 6.3848 5.91294 6.3848 5.7432V3.8296H33.6168V5.7448C33.6168 5.91454 33.6842 6.07733 33.8043 6.19735C33.9243 6.31737 34.0871 6.3848 34.2568 6.3848H36.172V9.1512C36.1728 9.31983 36.2402 9.48131 36.3594 9.60056C36.4787 9.7198 36.6402 9.78716 36.8088 9.788ZM34.8936 34.8936H38.72V38.72H34.8936V34.8936ZM5.1064 38.72H1.28V34.8936H5.1064V38.72ZM5.1064 5.1032H1.28V1.28H5.1064V5.1032ZM34.8936 1.28H38.72V5.1064H34.8936V1.28Z" fill="#2F52E0"/>
<path d="M31.4847 9.14489C31.4847 8.97515 31.4173 8.81236 31.2973 8.69233C31.1773 8.57231 31.0145 8.50488 30.8447 8.50488H9.15514C8.9854 8.50488 8.82261 8.57231 8.70259 8.69233C8.58256 8.81236 8.51514 8.97515 8.51514 9.14489V20.0009C8.51514 20.1706 8.58256 20.3334 8.70259 20.4534C8.82261 20.5735 8.9854 20.6409 9.15514 20.6409H30.8487C31.0185 20.6409 31.1813 20.5735 31.3013 20.4534C31.4213 20.3334 31.4887 20.1706 31.4887 20.0009L31.4847 9.14489ZM9.79514 10.1809L18.5775 14.5761L9.79514 18.9705V10.1809ZM11.8599 9.78648H28.1479L20.0039 13.8617L11.8599 9.78648ZM20.0039 15.2897L28.1479 19.3649H11.8599L20.0039 15.2897ZM21.4303 14.5761L30.2127 10.1809V18.9705L21.4303 14.5761Z" fill="#2F52E0"/>
<path d="M18.7272 30.2119H9.14879C8.97905 30.2119 8.81626 30.2793 8.69624 30.3994C8.57622 30.5194 8.50879 30.6822 8.50879 30.8519C8.50879 31.0216 8.57622 31.1844 8.69624 31.3045C8.81626 31.4245 8.97905 31.4919 9.14879 31.4919H18.728C18.8977 31.4919 19.0605 31.4245 19.1805 31.3045C19.3006 31.1844 19.368 31.0216 19.368 30.8519C19.368 30.6822 19.3006 30.5194 19.1805 30.3994C19.0605 30.2793 18.8977 30.2119 18.728 30.2119H18.7272Z" fill="#2F52E0"/>
<path d="M30.8527 30.2119H21.2743C21.1045 30.2119 20.9418 30.2793 20.8217 30.3994C20.7017 30.5194 20.6343 30.6822 20.6343 30.8519C20.6343 31.0216 20.7017 31.1844 20.8217 31.3045C20.9418 31.4245 21.1045 31.4919 21.2743 31.4919H30.8535C31.0232 31.4919 31.186 31.4245 31.306 31.3045C31.4261 31.1844 31.4935 31.0216 31.4935 30.8519C31.4935 30.6822 31.4261 30.5194 31.306 30.3994C31.186 30.2793 31.0232 30.2119 30.8535 30.2119H30.8527Z" fill="#2F52E0"/>
<path d="M18.7272 27.4993H9.14879C8.97905 27.4993 8.81626 27.5667 8.69624 27.6867C8.57622 27.8067 8.50879 27.9695 8.50879 28.1393C8.50879 28.309 8.57622 28.4718 8.69624 28.5918C8.81626 28.7118 8.97905 28.7793 9.14879 28.7793H18.728C18.8977 28.7793 19.0605 28.7118 19.1805 28.5918C19.3006 28.4718 19.368 28.309 19.368 28.1393C19.368 27.9695 19.3006 27.8067 19.1805 27.6867C19.0605 27.5667 18.8977 27.4993 18.728 27.4993H18.7272Z" fill="#2F52E0"/>
<path d="M30.8527 27.4993H21.2743C21.1045 27.4993 20.9418 27.5667 20.8217 27.6867C20.7017 27.8067 20.6343 27.9695 20.6343 28.1393C20.6343 28.309 20.7017 28.4718 20.8217 28.5918C20.9418 28.7118 21.1045 28.7793 21.2743 28.7793H30.8535C31.0232 28.7793 31.186 28.7118 31.306 28.5918C31.4261 28.4718 31.4935 28.309 31.4935 28.1393C31.4935 27.9695 31.4261 27.8067 31.306 27.6867C31.186 27.5667 31.0232 27.4993 30.8535 27.4993H30.8527Z" fill="#2F52E0"/>
<path d="M18.7272 24.7864H9.14879C8.97905 24.7864 8.81626 24.8538 8.69624 24.9738C8.57622 25.0939 8.50879 25.2566 8.50879 25.4264C8.50879 25.5961 8.57622 25.7589 8.69624 25.8789C8.81626 25.999 8.97905 26.0664 9.14879 26.0664H18.728C18.8977 26.0664 19.0605 25.999 19.1805 25.8789C19.3006 25.7589 19.368 25.5961 19.368 25.4264C19.368 25.2566 19.3006 25.0939 19.1805 24.9738C19.0605 24.8538 18.8977 24.7864 18.728 24.7864H18.7272Z" fill="#2F52E0"/>
<path d="M30.8527 24.7864H21.2743C21.1045 24.7864 20.9418 24.8538 20.8217 24.9738C20.7017 25.0939 20.6343 25.2566 20.6343 25.4264C20.6343 25.5961 20.7017 25.7589 20.8217 25.8789C20.9418 25.999 21.1045 26.0664 21.2743 26.0664H30.8535C31.0232 26.0664 31.186 25.999 31.306 25.8789C31.4261 25.7589 31.4935 25.5961 31.4935 25.4264C31.4935 25.2566 31.4261 25.0939 31.306 24.9738C31.186 24.8538 31.0232 24.7864 30.8535 24.7864H30.8527Z" fill="#2F52E0"/>
<path d="M30.8471 22.0745H9.15514C8.9854 22.0745 8.82261 22.1419 8.70259 22.2619C8.58256 22.3819 8.51514 22.5447 8.51514 22.7145C8.51514 22.8842 8.58256 23.047 8.70259 23.167C8.82261 23.287 8.9854 23.3545 9.15514 23.3545H30.8487C31.0185 23.3545 31.1813 23.287 31.3013 23.167C31.4213 23.047 31.4887 22.8842 31.4887 22.7145C31.4887 22.5447 31.4213 22.3819 31.3013 22.2619C31.1813 22.1419 31.0185 22.0745 30.8487 22.0745H30.8471Z" fill="#2F52E0"/>
</g>
<defs>
<clipPath id="clip0">
<rect width="40" height="40" fill="white"/>
</clipPath>
</defs>
</svg>
