<?xml version="1.0" encoding="utf-8"?>
<svg width="40" height="40" viewBox="0 0 40 40" fill="none" xmlns="http://www.w3.org/2000/svg">
<g clip-path="url(#clip0)">
<path d="M21.5456 26.0456C21.634 26.0533 21.723 26.0425 21.807 26.0139C21.891 25.9854 21.9681 25.9397 22.0335 25.8797C22.0989 25.8198 22.1511 25.7469 22.1868 25.6657C22.2225 25.5845 22.241 25.4967 22.241 25.408C22.241 25.3193 22.2225 25.2315 22.1868 25.1503C22.1511 25.0691 22.0989 24.9962 22.0335 24.9363C21.9681 24.8763 21.891 24.8306 21.807 24.8021C21.723 24.7735 21.634 24.7627 21.5456 24.7704H1.3696C1.34476 24.7698 1.3211 24.7597 1.30352 24.7421C1.28595 24.7245 1.27581 24.7008 1.2752 24.676V1.3696C1.27581 1.34476 1.28595 1.3211 1.30352 1.30352C1.3211 1.28595 1.34476 1.27581 1.3696 1.2752H32.1176C32.1424 1.27581 32.1661 1.28595 32.1837 1.30352C32.2012 1.3211 32.2114 1.34476 32.212 1.3696V12.5888C32.2043 12.6772 32.2151 12.7662 32.2437 12.8502C32.2722 12.9342 32.3179 13.0113 32.3779 13.0767C32.4378 13.1421 32.5107 13.1943 32.5919 13.23C32.6731 13.2657 32.7609 13.2842 32.8496 13.2842C32.9383 13.2842 33.0261 13.2657 33.1073 13.23C33.1885 13.1943 33.2614 13.1421 33.3213 13.0767C33.3813 13.0113 33.427 12.9342 33.4555 12.8502C33.4841 12.7662 33.4949 12.6772 33.4872 12.5888V1.3696C33.4868 1.00649 33.3423 0.658372 33.0856 0.401614C32.8288 0.144856 32.4807 0.000423453 32.1176 0L1.3696 0C1.00649 0.000423453 0.658372 0.144856 0.401614 0.401614C0.144856 0.658372 0.000423453 1.00649 0 1.3696V24.676C0.000423453 25.0391 0.144856 25.3872 0.401614 25.644C0.658372 25.9007 1.00649 26.0452 1.3696 26.0456H12.86V29.8952H7.9584C7.79885 29.9091 7.65029 29.9822 7.54205 30.1003C7.43382 30.2183 7.37377 30.3726 7.37377 30.5328C7.37377 30.693 7.43382 30.8473 7.54205 30.9653C7.65029 31.0834 7.79885 31.1565 7.9584 31.1704H21.5456C21.634 31.1781 21.723 31.1673 21.807 31.1387C21.891 31.1102 21.9681 31.0645 22.0335 31.0045C22.0989 30.9446 22.1511 30.8717 22.1868 30.7905C22.2225 30.7093 22.241 30.6215 22.241 30.5328C22.241 30.4441 22.2225 30.3563 22.1868 30.2751C22.1511 30.1939 22.0989 30.121 22.0335 30.0611C21.9681 30.0011 21.891 29.9554 21.807 29.9269C21.723 29.8983 21.634 29.8875 21.5456 29.8952H20.6272V26.0456H21.5456ZM19.352 29.8952H14.1352V26.0456H19.352V29.8952Z" fill="#2F52E0"/>
<path d="M21.5455 20.4784H3.18951C3.10113 20.4707 3.01212 20.4815 2.92813 20.51C2.84414 20.5386 2.767 20.5843 2.70161 20.6442C2.63623 20.7042 2.58402 20.7771 2.5483 20.8583C2.51258 20.9395 2.49414 21.0272 2.49414 21.116C2.49414 21.2047 2.51258 21.2924 2.5483 21.3736C2.58402 21.4548 2.63623 21.5277 2.70161 21.5877C2.767 21.6476 2.84414 21.6933 2.92813 21.7219C3.01212 21.7505 3.10113 21.7612 3.18951 21.7535H21.5455C21.6339 21.7612 21.7229 21.7505 21.8069 21.7219C21.8909 21.6933 21.968 21.6476 22.0334 21.5877C22.0988 21.5277 22.151 21.4548 22.1867 21.3736C22.2224 21.2924 22.2409 21.2047 22.2409 21.116C22.2409 21.0272 22.2224 20.9395 22.1867 20.8583C22.151 20.7771 22.0988 20.7042 22.0334 20.6442C21.968 20.5843 21.8909 20.5386 21.8069 20.51C21.7229 20.4815 21.6339 20.4707 21.5455 20.4784V20.4784Z" fill="#2F52E0"/>
<path d="M38.6312 14.5544H24.8808C24.5177 14.5549 24.1696 14.6993 23.9128 14.9561C23.6561 15.2128 23.5117 15.5609 23.5112 15.924V38.6304C23.5117 38.9936 23.6561 39.3417 23.9128 39.5984C24.1696 39.8552 24.5177 39.9996 24.8808 40.0001H38.6312C38.9943 39.9996 39.3425 39.8552 39.5992 39.5984C39.856 39.3417 40.0004 38.9936 40.0008 38.6304V15.924C40.0004 15.5609 39.856 15.2128 39.5992 14.9561C39.3425 14.6993 38.9943 14.5549 38.6312 14.5544V14.5544ZM24.7872 18.3792H38.7264V33.6257H24.7864L24.7872 18.3792ZM24.8816 15.8296H38.6312C38.6561 15.8302 38.6797 15.8404 38.6973 15.858C38.7149 15.8755 38.725 15.8992 38.7256 15.924V17.1032H24.7864V15.9232C24.7872 15.8985 24.7975 15.8751 24.815 15.8577C24.8326 15.8403 24.8561 15.8302 24.8808 15.8296H24.8816ZM38.6312 38.7257H24.8808C24.856 38.725 24.8323 38.7149 24.8147 38.6973C24.7972 38.6798 24.787 38.6561 24.7864 38.6313V34.9008H38.7256V38.6313C38.725 38.6561 38.7149 38.6798 38.6973 38.6973C38.6797 38.7149 38.6561 38.725 38.6312 38.7257V38.7257Z" fill="#2F52E0"/>
<path d="M33.0215 36.1753H30.4743C30.3147 36.1891 30.1662 36.2623 30.0579 36.3803C29.9497 36.4984 29.8896 36.6527 29.8896 36.8128C29.8896 36.973 29.9497 37.1273 30.0579 37.2454C30.1662 37.3634 30.3147 37.4366 30.4743 37.4504H33.0239C33.1123 37.4581 33.2013 37.4473 33.2853 37.4188C33.3692 37.3902 33.4464 37.3445 33.5118 37.2846C33.5772 37.2246 33.6294 37.1517 33.6651 37.0705C33.7008 36.9893 33.7193 36.9016 33.7193 36.8128C33.7193 36.7241 33.7008 36.6364 33.6651 36.5552C33.6294 36.474 33.5772 36.4011 33.5118 36.3411C33.4464 36.2812 33.3692 36.2355 33.2853 36.2069C33.2013 36.1784 33.1123 36.1676 33.0239 36.1753H33.0215Z" fill="#2F52E0"/>
</g>
<defs>
<clipPath id="clip0">
<rect width="40" height="40" fill="white"/>
</clipPath>
</defs>
</svg>
