<svg width="48" height="48" viewBox="0 0 48 48" fill="none" xmlns="http://www.w3.org/2000/svg">
<g clip-path="url(#clip0)">
<path d="M11.4999 26.1079C11.0737 26.1079 10.657 26.2343 10.3026 26.4711C9.94814 26.708 9.6719 27.0445 9.50878 27.4384C9.34566 27.8322 9.30298 28.2655 9.38614 28.6836C9.4693 29.1016 9.67456 29.4856 9.97597 29.7871C10.2774 30.0885 10.6614 30.2937 11.0795 30.3769C11.4975 30.4601 11.9309 30.4174 12.3247 30.2542C12.7185 30.0911 13.0551 29.8149 13.2919 29.4605C13.5287 29.106 13.6551 28.6894 13.6551 28.2631C13.6539 27.6919 13.4264 27.1445 13.0225 26.7406C12.6186 26.3366 12.0711 26.1092 11.4999 26.1079ZM11.4999 28.9975C11.3548 28.9975 11.213 28.9545 11.0924 28.8739C10.9717 28.7933 10.8777 28.6787 10.8222 28.5447C10.7666 28.4106 10.7521 28.2631 10.7804 28.1208C10.8087 27.9785 10.8786 27.8478 10.9812 27.7452C11.0838 27.6426 11.2145 27.5727 11.3568 27.5444C11.4991 27.5161 11.6466 27.5306 11.7807 27.5862C11.9147 27.6417 12.0293 27.7357 12.1099 27.8563C12.1905 27.977 12.2335 28.1188 12.2335 28.2639C12.2336 28.3604 12.2147 28.4559 12.1779 28.545C12.1411 28.6342 12.0871 28.7152 12.019 28.7834C11.9509 28.8517 11.87 28.9059 11.7809 28.9429C11.6918 28.9799 11.5964 28.999 11.4999 28.9991V28.9975Z" fill="#2F52E0"/>
<path d="M30.8787 39.7777C30.8324 39.6349 30.7421 39.5104 30.6206 39.4222C30.4992 39.3339 30.3529 39.2864 30.2027 39.2865H25.9803L24.6755 35.2705C24.6289 35.128 24.5385 35.0038 24.4171 34.9157C24.2957 34.8277 24.1495 34.7803 23.9995 34.7803C23.8496 34.7803 23.7034 34.8277 23.582 34.9157C23.4606 35.0038 23.3701 35.128 23.3235 35.2705L22.0187 39.2865H17.7963C17.6464 39.2869 17.5005 39.3346 17.3793 39.4229C17.2582 39.5111 17.168 39.6354 17.1217 39.778C17.0754 39.9205 17.0753 40.0741 17.1215 40.2167C17.1676 40.3593 17.2577 40.4837 17.3787 40.5721L20.7947 43.0521L19.49 47.0681C19.444 47.2108 19.4443 47.3643 19.4908 47.5068C19.5373 47.6493 19.6277 47.7734 19.7489 47.8615C19.8702 47.9496 20.0162 47.9971 20.1661 47.9973C20.316 47.9975 20.4621 47.9503 20.5836 47.8625L23.9995 45.3825L27.4155 47.8625C27.537 47.9503 27.6831 47.9975 27.833 47.9973C27.9829 47.9971 28.1289 47.9496 28.2502 47.8615C28.3714 47.7734 28.4618 47.6493 28.5083 47.5068C28.5548 47.3643 28.5551 47.2108 28.5092 47.0681L27.2043 43.0521L30.6203 40.5721C30.7418 40.4839 30.8322 40.3596 30.8787 40.2169C30.9251 40.0742 30.9251 39.9204 30.8787 39.7777ZM25.9508 42.2073C25.8293 42.2954 25.7389 42.4198 25.6924 42.5625C25.646 42.7052 25.646 42.859 25.6923 43.0017L26.4803 45.4281L24.4164 43.9289C24.2944 43.8421 24.1484 43.7954 23.9988 43.7954C23.8491 43.7954 23.7031 43.8421 23.5811 43.9289L21.5171 45.4281L22.3051 43.0017C22.3515 42.859 22.3515 42.7052 22.305 42.5625C22.2586 42.4198 22.1682 42.2954 22.0467 42.2073L19.9827 40.7081H22.5339C22.684 40.708 22.8303 40.6605 22.9517 40.5722C23.0731 40.484 23.1635 40.3596 23.2099 40.2169L23.9979 37.7905L24.7859 40.2169C24.8324 40.3596 24.9228 40.484 25.0442 40.5722C25.1656 40.6605 25.3119 40.708 25.4619 40.7081H28.0131L25.9508 42.2073Z" fill="#2F52E0"/>
<path d="M47.9648 39.7767C47.9184 39.634 47.828 39.5096 47.7066 39.4214C47.5851 39.3332 47.4389 39.2856 47.2888 39.2855H43.0664L41.7616 35.2695C41.715 35.127 41.6246 35.0028 41.5031 34.9147C41.3817 34.8267 41.2356 34.7793 41.0856 34.7793C40.9356 34.7793 40.7895 34.8267 40.6681 34.9147C40.5467 35.0028 40.4562 35.127 40.4096 35.2695L39.1048 39.2855H34.8808C34.7309 39.2859 34.585 39.3336 34.4638 39.4219C34.3427 39.5102 34.2525 39.6344 34.2062 39.777C34.1599 39.9196 34.1598 40.0731 34.206 40.2157C34.2521 40.3584 34.3422 40.4827 34.4632 40.5711L37.8792 43.0511L36.5744 47.0671C36.5285 47.2098 36.5288 47.3634 36.5753 47.5058C36.6218 47.6483 36.7121 47.7725 36.8334 47.8606C36.9547 47.9486 37.1007 47.9962 37.2506 47.9963C37.4004 47.9965 37.5465 47.9493 37.668 47.8615L41.084 45.3815L44.5 47.8615C44.6215 47.9493 44.7676 47.9965 44.9175 47.9963C45.0674 47.9962 45.2134 47.9486 45.3346 47.8606C45.4559 47.7725 45.5463 47.6483 45.5928 47.5058C45.6393 47.3634 45.6396 47.2098 45.5936 47.0671L44.2888 43.0511L47.7048 40.5711C47.8266 40.4832 47.9173 40.3589 47.964 40.2162C48.0107 40.0735 48.011 39.9196 47.9648 39.7767ZM43.0368 42.2071C42.9154 42.2953 42.8249 42.4196 42.7785 42.5623C42.7321 42.705 42.7321 42.8588 42.7784 43.0015L43.5664 45.4279L41.5024 43.9287C41.381 43.8404 41.2346 43.7927 41.0844 43.7927C40.9342 43.7927 40.7879 43.8404 40.6664 43.9287L38.6024 45.4279L39.3904 43.0015C39.4368 42.8588 39.4368 42.705 39.3903 42.5623C39.3439 42.4196 39.2535 42.2953 39.132 42.2071L37.068 40.7079H39.6192C39.7693 40.7079 39.9155 40.6603 40.037 40.5721C40.1584 40.4838 40.2488 40.3595 40.2952 40.2167L41.0832 37.7903L41.8712 40.2167C41.9176 40.3595 42.008 40.4838 42.1295 40.5721C42.2509 40.6603 42.3971 40.7079 42.5472 40.7079H45.0984L43.0368 42.2071Z" fill="#2F52E0"/>
<path d="M13.7936 39.7777C13.7472 39.635 13.6568 39.5106 13.5354 39.4223C13.4139 39.3341 13.2677 39.2866 13.1176 39.2865H8.89521L7.59041 35.2705C7.54381 35.128 7.45334 35.0038 7.33193 34.9157C7.21052 34.8277 7.06439 34.7803 6.91441 34.7803C6.76444 34.7803 6.6183 34.8277 6.49689 34.9157C6.37548 35.0038 6.28501 35.128 6.23841 35.2705L4.93361 39.2865H0.710411C0.560512 39.2869 0.414564 39.3346 0.293406 39.4229C0.172248 39.5111 0.0820768 39.6354 0.0357671 39.778C-0.0105425 39.9205 -0.0106221 40.0741 0.0355399 40.2167C0.0817018 40.3593 0.171745 40.4837 0.292811 40.5721L3.70881 43.0521L2.40001 47.0697C2.35406 47.2124 2.35437 47.3659 2.40087 47.5084C2.44738 47.6509 2.53772 47.775 2.65899 47.8631C2.78026 47.9512 2.92626 47.9987 3.07614 47.9989C3.22603 47.9991 3.37214 47.9519 3.49361 47.8641L6.90961 45.3841L10.3256 47.8641C10.4471 47.9519 10.5932 47.9991 10.7431 47.9989C10.893 47.9987 11.039 47.9512 11.1602 47.8631C11.2815 47.775 11.3718 47.6509 11.4183 47.5084C11.4649 47.3659 11.4652 47.2124 11.4192 47.0697L10.1144 43.0537L13.5304 40.5737C13.653 40.4861 13.7446 40.3617 13.792 40.2187C13.8393 40.0756 13.8398 39.9211 13.7936 39.7777ZM8.86561 42.2073C8.74415 42.2954 8.65373 42.4198 8.60731 42.5625C8.56088 42.7052 8.56085 42.859 8.60721 43.0017L9.39521 45.4281L7.33121 43.9289C7.20919 43.8419 7.06307 43.7951 6.91321 43.7951C6.76335 43.7951 6.61723 43.8419 6.49521 43.9289L4.43121 45.4281L5.21921 43.0017C5.26557 42.859 5.26554 42.7052 5.21912 42.5625C5.17269 42.4198 5.08227 42.2954 4.96081 42.2073L2.89681 40.7081H5.44961C5.59971 40.708 5.74593 40.6605 5.86736 40.5722C5.98878 40.484 6.07918 40.3596 6.12561 40.2169L6.91361 37.7905L7.70161 40.2169C7.74804 40.3596 7.83844 40.484 7.95986 40.5722C8.08129 40.6605 8.22752 40.708 8.37761 40.7081H10.9288L8.86561 42.2073Z" fill="#2F52E0"/>
<path d="M42.2591 17.7215C42.7731 17.3031 43.1459 16.7366 43.3268 16.099C43.5077 15.4613 43.4879 14.7835 43.2701 14.1575C43.0524 13.5315 42.6472 12.9877 42.1096 12.6C41.5721 12.2122 40.9282 11.9994 40.2655 11.9903H28.9623C29.4612 10.8434 29.7942 9.63119 29.9511 8.39031C30.4895 4.57751 29.6759 2.55031 28.8983 1.52711C28.5983 1.11204 28.2163 0.762976 27.776 0.50152C27.3356 0.240065 26.8463 0.0717884 26.3383 0.00711167C26.1327 -0.0136434 25.925 0.00822346 25.7282 0.0713463C25.5314 0.134469 25.3497 0.237492 25.1946 0.373979C25.0394 0.510467 24.914 0.677487 24.8263 0.864606C24.7385 1.05173 24.6903 1.25493 24.6847 1.46151C24.5535 2.82871 24.0719 6.58151 23.3823 7.97431C21.6111 11.5575 17.3887 13.6935 16.0847 14.2847C15.6153 13.8729 15.0123 13.6455 14.3879 13.6447H8.67268C7.97695 13.6494 7.31153 13.9301 6.82265 14.4251C6.33377 14.9201 6.06143 15.589 6.06547 16.2847V30.7327C6.06143 31.4284 6.33377 32.0973 6.82265 32.5924C7.31153 33.0874 7.97695 33.3681 8.67268 33.3727H14.3855C14.7526 33.372 15.1154 33.2931 15.4498 33.1414C15.7841 32.9897 16.0824 32.7686 16.3247 32.4927C17.4008 33.1651 18.6479 33.5128 19.9167 33.4943H38.2807C38.8965 33.4862 39.4972 33.302 40.0117 32.9635C40.5263 32.625 40.9332 32.1463 41.1845 31.5839C41.4357 31.0216 41.5208 30.3991 41.4297 29.79C41.3386 29.1809 41.0751 28.6105 40.6703 28.1463C41.1118 27.925 41.4968 27.6056 41.7959 27.2126C42.095 26.8197 42.3003 26.3635 42.3961 25.879C42.4919 25.3945 42.4757 24.8946 42.3486 24.4173C42.2216 23.9401 41.9871 23.4982 41.6631 23.1255C42.1462 22.8832 42.5611 22.5238 42.8698 22.0801C43.1785 21.6363 43.3713 21.1224 43.4305 20.5852C43.4897 20.0479 43.4136 19.5043 43.209 19.004C43.0044 18.5037 42.6778 18.0625 42.2591 17.7207V17.7215ZM14.3855 31.9479H8.67268C8.35256 31.9454 8.04651 31.8161 7.82158 31.5883C7.59665 31.3605 7.47118 31.0528 7.47268 30.7327V16.2847C7.47118 15.9646 7.59665 15.6569 7.82158 15.4292C8.04651 15.2014 8.35256 15.0721 8.67268 15.0695H14.3855C14.5455 15.0697 14.7039 15.1022 14.8511 15.165C14.9983 15.2278 15.1314 15.3197 15.2423 15.4351V31.2871C15.2423 31.3712 15.2572 31.4546 15.2863 31.5335C15.1747 31.6632 15.0364 31.7673 14.881 31.8388C14.7256 31.9103 14.5566 31.9475 14.3855 31.9479ZM37.3135 18.4335H40.2663C40.7437 18.4335 41.2015 18.6232 41.5391 18.9607C41.8766 19.2983 42.0663 19.7561 42.0663 20.2335C42.0663 20.7109 41.8766 21.1687 41.5391 21.5063C41.2015 21.8439 40.7437 22.0335 40.2663 22.0335H37.3135C37.1291 22.0397 36.9543 22.1173 36.8261 22.2499C36.6978 22.3826 36.6261 22.5598 36.6261 22.7443C36.6261 22.9288 36.6978 23.1061 36.8261 23.2387C36.9543 23.3713 37.1291 23.4489 37.3135 23.4551H39.2735C39.7509 23.4551 40.2087 23.6448 40.5463 23.9823C40.8838 24.3199 41.0735 24.7777 41.0735 25.2551C41.0735 25.7325 40.8838 26.1903 40.5463 26.5279C40.2087 26.8655 39.7509 27.0551 39.2735 27.0551H36.7751C36.5907 27.0613 36.4159 27.1389 36.2877 27.2715C36.1594 27.4042 36.0877 27.5814 36.0877 27.7659C36.0877 27.9504 36.1594 28.1277 36.2877 28.2603C36.4159 28.3929 36.5907 28.4705 36.7751 28.4767H38.2815C38.7589 28.4767 39.2167 28.6664 39.5543 29.0039C39.8918 29.3415 40.0815 29.7993 40.0815 30.2767C40.0815 30.7541 39.8918 31.2119 39.5543 31.5495C39.2167 31.8871 38.7589 32.0767 38.2815 32.0767H19.9159C18.8621 32.0998 17.8265 31.7994 16.9487 31.2159C16.9778 31.0576 16.9925 30.8969 16.9927 30.7359V16.2847C16.993 16.0134 16.9517 15.7436 16.8703 15.4847C18.5167 14.7199 22.7327 12.4599 24.6367 8.60471C25.5895 6.67831 26.0639 1.77111 26.0839 1.56471C26.0839 1.54231 26.0839 1.51911 26.0839 1.49671C26.0838 1.48522 26.0862 1.47384 26.0908 1.46335C26.0955 1.45285 26.1024 1.4435 26.1111 1.43591C26.1187 1.42871 26.1278 1.42332 26.1378 1.42013C26.1477 1.41694 26.1583 1.41605 26.1687 1.41751C26.4897 1.46028 26.7984 1.56873 27.0756 1.7361C27.3528 1.90347 27.5926 2.12617 27.7799 2.39031C28.3935 3.20071 29.0263 4.86391 28.5567 8.18791C28.4332 9.62788 27.9716 11.0184 27.2095 12.2463C27.1282 12.3511 27.0775 12.4762 27.0628 12.608C27.0482 12.7398 27.0702 12.873 27.1265 12.9931C27.1827 13.1131 27.2711 13.2153 27.3817 13.2884C27.4923 13.3614 27.621 13.4025 27.7535 13.4071H40.2631C40.7405 13.4071 41.1983 13.5968 41.5359 13.9343C41.8734 14.2719 42.0631 14.7297 42.0631 15.2071C42.0631 15.6845 41.8734 16.1423 41.5359 16.4799C41.1983 16.8175 40.7405 17.0071 40.2631 17.0071H37.3103C37.1259 17.0133 36.9511 17.0909 36.8229 17.2235C36.6946 17.3561 36.6229 17.5334 36.6229 17.7179C36.6229 17.9024 36.6946 18.0797 36.8229 18.2123C36.9511 18.3449 37.1259 18.4225 37.3103 18.4287L37.3135 18.4335Z" fill="#2F52E0"/>
</g>
<defs>
<clipPath id="clip0">
<rect width="48" height="48" fill="white"/>
</clipPath>
</defs>
</svg>
