<svg width="296" height="420" viewBox="0 0 296 420" fill="none" xmlns="http://www.w3.org/2000/svg">
<g clip-path="url(#clip0)">
<path d="M5.19163 0H861.808C864.676 0 867 3.44987 867 7.70654V412.293C867 416.55 864.676 420 861.808 420H5.19163C2.32439 420 0 416.55 0 412.293V7.70654C0 3.44987 2.32439 0 5.19163 0Z" fill="#2F52E0"/>
<path d="M297.416 -33.0382C473.561 -37.0282 378.334 180.623 446.895 284.414C515.456 388.204 121.27 -29.045 297.416 -33.0382Z" fill="#3156EF"/>
<path d="M37.0941 473.151C287.802 370.852 269.466 291.42 346.971 363.654C424.476 435.888 462.832 376.577 525.048 396.939C587.264 417.301 577.817 436.409 595.835 445.107C613.853 453.805 603.79 472.626 644.279 428.598C684.768 384.571 712.512 396.939 712.512 396.939C712.512 396.939 803.226 417.644 854.312 410.944C905.398 404.244 878.602 571.271 873.983 574.694C869.364 578.117 327.323 735.189 320.278 734.282C313.233 733.375 -213.614 575.452 37.0941 473.151Z" fill="#3156EF"/>
<path d="M72.4099 18.349C106.888 253.003 -27.6511 179.692 -15.0691 366.109C-2.48709 552.526 -107.252 272.78 -107.252 272.78C-107.252 272.78 37.9319 -216.306 72.4099 18.349Z" fill="#3156EF"/>
</g>
<defs>
<clipPath id="clip0">
<rect width="296" height="420" rx="6" fill="white"/>
</clipPath>
</defs>
</svg>
