<svg width="1120" height="335" viewBox="0 0 1120 335" fill="none" xmlns="http://www.w3.org/2000/svg">
<g clip-path="url(#clip0)">
<path d="M6.70659 0H1113.29C1115.07 -1.10862e-06 1116.78 0.646621 1118.03 1.79782C1119.29 2.94901 1120 4.51063 1120 6.13962V328.463C1120 330.092 1119.29 331.654 1118.03 332.805C1116.78 333.956 1115.07 334.603 1113.29 334.603H6.70659C4.92924 334.603 3.22458 333.956 1.96708 332.805C0.709574 331.654 0.00207357 330.092 0 328.463L0 6.13962C0.00207357 4.51063 0.709574 2.94901 1.96708 1.79782C3.22458 0.646621 4.92924 -1.10862e-06 6.70659 0V0Z" fill="#2F52E0"/>
<path d="M1013.41 -26.3318C1240.89 -29.5138 1117.91 143.97 1206.45 226.695C1295 309.421 785.924 -23.1498 1013.41 -26.3318Z" fill="#3156EF"/>
<path d="M47.9051 377.126C371.687 295.587 348.006 232.276 448.102 289.85C548.198 347.424 597.732 300.151 678.083 316.383C758.433 332.616 746.233 347.843 769.503 354.776C792.772 361.71 779.776 376.711 832.066 341.618C884.356 306.525 920.187 316.383 920.187 316.383C920.187 316.383 1037.34 332.886 1103.32 327.55C1169.29 322.214 1134.68 455.34 1128.72 458.067C1122.76 460.794 422.725 585.983 413.627 585.266C404.528 584.548 -275.877 458.665 47.9051 377.126Z" fill="#3156EF"/>
<path d="M93.5156 14.6232C138.043 201.657 -35.7103 143.223 -19.4602 291.808C-3.21013 440.392 -138.512 217.419 -138.512 217.419C-138.512 217.419 48.9883 -172.409 93.5156 14.6232Z" fill="#3156EF"/>
</g>
<defs>
<clipPath id="clip0">
<rect width="1120" height="335" fill="white"/>
</clipPath>
</defs>
</svg>
