<?xml version="1.0" encoding="utf-8"?>
<svg width="39" height="104" viewBox="0 0 39 104" fill="none" xmlns="http://www.w3.org/2000/svg">
<circle cx="37.5" cy="102.5" r="1.5" transform="rotate(-90 37.5 102.5)" fill="#2F52E0"/>
<circle cx="37.5" cy="66.5" r="1.5" transform="rotate(-90 37.5 66.5)" fill="#2F52E0"/>
<circle cx="37.5" cy="84.5" r="1.5" transform="rotate(-90 37.5 84.5)" fill="#2F52E0"/>
<circle cx="37.5" cy="46.5" r="1.5" transform="rotate(-90 37.5 46.5)" fill="#2F52E0"/>
<circle cx="37.5" cy="28.5" r="1.5" transform="rotate(-90 37.5 28.5)" fill="#2F52E0"/>
<circle cx="37.5" cy="10.5" r="1.5" transform="rotate(-90 37.5 10.5)" fill="#2F52E0"/>
<circle cx="37.5" cy="93.5" r="1.5" transform="rotate(-90 37.5 93.5)" fill="#F25757"/>
<circle cx="37.5" cy="57.5" r="1.5" transform="rotate(-90 37.5 57.5)" fill="#F25757"/>
<circle cx="37.5" cy="75.5" r="1.5" transform="rotate(-90 37.5 75.5)" fill="#F25757"/>
<circle cx="37.5" cy="37.5" r="1.5" transform="rotate(-90 37.5 37.5)" fill="#F25757"/>
<circle cx="37.5" cy="19.5" r="1.5" transform="rotate(-90 37.5 19.5)" fill="#F25757"/>
<circle cx="37.5" cy="1.5" r="1.5" transform="rotate(-90 37.5 1.5)" fill="#F25757"/>
<circle cx="28.5" cy="102.5" r="1.5" transform="rotate(-90 28.5 102.5)" fill="#2F52E0"/>
<circle cx="28.5" cy="66.5" r="1.5" transform="rotate(-90 28.5 66.5)" fill="#2F52E0"/>
<circle cx="28.5" cy="84.5" r="1.5" transform="rotate(-90 28.5 84.5)" fill="#2F52E0"/>
<circle cx="28.5" cy="46.5" r="1.5" transform="rotate(-90 28.5 46.5)" fill="#2F52E0"/>
<circle cx="28.5" cy="28.5" r="1.5" transform="rotate(-90 28.5 28.5)" fill="#2F52E0"/>
<circle cx="28.5" cy="10.5" r="1.5" transform="rotate(-90 28.5 10.5)" fill="#2F52E0"/>
<circle cx="28.5" cy="93.5" r="1.5" transform="rotate(-90 28.5 93.5)" fill="#F25757"/>
<circle cx="28.5" cy="57.5" r="1.5" transform="rotate(-90 28.5 57.5)" fill="#F25757"/>
<circle cx="28.5" cy="75.5" r="1.5" transform="rotate(-90 28.5 75.5)" fill="#F25757"/>
<circle cx="28.5" cy="37.5" r="1.5" transform="rotate(-90 28.5 37.5)" fill="#F25757"/>
<circle cx="28.5" cy="19.5" r="1.5" transform="rotate(-90 28.5 19.5)" fill="#F25757"/>
<circle cx="28.5" cy="1.5" r="1.5" transform="rotate(-90 28.5 1.5)" fill="#F25757"/>
<circle cx="19.5" cy="102.5" r="1.5" transform="rotate(-90 19.5 102.5)" fill="#2F52E0"/>
<circle cx="19.5" cy="66.5" r="1.5" transform="rotate(-90 19.5 66.5)" fill="#2F52E0"/>
<circle cx="19.5" cy="84.5" r="1.5" transform="rotate(-90 19.5 84.5)" fill="#2F52E0"/>
<circle cx="19.5" cy="46.5" r="1.5" transform="rotate(-90 19.5 46.5)" fill="#2F52E0"/>
<circle cx="19.5" cy="28.5" r="1.5" transform="rotate(-90 19.5 28.5)" fill="#2F52E0"/>
<circle cx="19.5" cy="10.5" r="1.5" transform="rotate(-90 19.5 10.5)" fill="#2F52E0"/>
<circle cx="19.5" cy="93.5" r="1.5" transform="rotate(-90 19.5 93.5)" fill="#F25757"/>
<circle cx="19.5" cy="57.5" r="1.5" transform="rotate(-90 19.5 57.5)" fill="#F25757"/>
<circle cx="19.5" cy="75.5" r="1.5" transform="rotate(-90 19.5 75.5)" fill="#F25757"/>
<circle cx="19.5" cy="37.5" r="1.5" transform="rotate(-90 19.5 37.5)" fill="#F25757"/>
<circle cx="19.5" cy="19.5" r="1.5" transform="rotate(-90 19.5 19.5)" fill="#F25757"/>
<circle cx="19.5" cy="1.5" r="1.5" transform="rotate(-90 19.5 1.5)" fill="#F25757"/>
<circle cx="10.5" cy="102.5" r="1.5" transform="rotate(-90 10.5 102.5)" fill="#2F52E0"/>
<circle cx="10.5" cy="66.5" r="1.5" transform="rotate(-90 10.5 66.5)" fill="#2F52E0"/>
<circle cx="10.5" cy="84.5" r="1.5" transform="rotate(-90 10.5 84.5)" fill="#2F52E0"/>
<circle cx="10.5" cy="46.5" r="1.5" transform="rotate(-90 10.5 46.5)" fill="#2F52E0"/>
<circle cx="10.5" cy="28.5" r="1.5" transform="rotate(-90 10.5 28.5)" fill="#2F52E0"/>
<circle cx="10.5" cy="10.5" r="1.5" transform="rotate(-90 10.5 10.5)" fill="#2F52E0"/>
<circle cx="10.5" cy="93.5" r="1.5" transform="rotate(-90 10.5 93.5)" fill="#F25757"/>
<circle cx="10.5" cy="57.5" r="1.5" transform="rotate(-90 10.5 57.5)" fill="#F25757"/>
<circle cx="10.5" cy="75.5" r="1.5" transform="rotate(-90 10.5 75.5)" fill="#F25757"/>
<circle cx="10.5" cy="37.5" r="1.5" transform="rotate(-90 10.5 37.5)" fill="#F25757"/>
<circle cx="10.5" cy="19.5" r="1.5" transform="rotate(-90 10.5 19.5)" fill="#F25757"/>
<circle cx="10.5" cy="1.5" r="1.5" transform="rotate(-90 10.5 1.5)" fill="#F25757"/>
<circle cx="1.5" cy="102.5" r="1.5" transform="rotate(-90 1.5 102.5)" fill="#2F52E0"/>
<circle cx="1.5" cy="66.5" r="1.5" transform="rotate(-90 1.5 66.5)" fill="#2F52E0"/>
<circle cx="1.5" cy="84.5" r="1.5" transform="rotate(-90 1.5 84.5)" fill="#2F52E0"/>
<circle cx="1.5" cy="46.5" r="1.5" transform="rotate(-90 1.5 46.5)" fill="#2F52E0"/>
<circle cx="1.5" cy="28.5" r="1.5" transform="rotate(-90 1.5 28.5)" fill="#2F52E0"/>
<circle cx="1.5" cy="10.5" r="1.5" transform="rotate(-90 1.5 10.5)" fill="#2F52E0"/>
<circle cx="1.5" cy="93.5" r="1.5" transform="rotate(-90 1.5 93.5)" fill="#F25757"/>
<circle cx="1.5" cy="57.5" r="1.5" transform="rotate(-90 1.5 57.5)" fill="#F25757"/>
<circle cx="1.5" cy="75.5" r="1.5" transform="rotate(-90 1.5 75.5)" fill="#F25757"/>
<circle cx="1.5" cy="37.5" r="1.5" transform="rotate(-90 1.5 37.5)" fill="#F25757"/>
<circle cx="1.5" cy="19.5" r="1.5" transform="rotate(-90 1.5 19.5)" fill="#F25757"/>
<circle cx="1.5" cy="1.5" r="1.5" transform="rotate(-90 1.5 1.5)" fill="#F25757"/>
</svg>
