<svg width="104" height="39" viewBox="0 0 104 39" fill="none" xmlns="http://www.w3.org/2000/svg">
<circle cx="1.5" cy="37.5" r="1.5" fill="#2F52E0"/>
<circle cx="37.5" cy="37.5" r="1.5" fill="#2F52E0"/>
<circle cx="19.5" cy="37.5" r="1.5" fill="#2F52E0"/>
<circle cx="57.5" cy="37.5" r="1.5" fill="#2F52E0"/>
<circle cx="75.5" cy="37.5" r="1.5" fill="#2F52E0"/>
<circle cx="93.5" cy="37.5" r="1.5" fill="#2F52E0"/>
<circle cx="10.5" cy="37.5" r="1.5" fill="#F25757"/>
<circle cx="46.5" cy="37.5" r="1.5" fill="#F25757"/>
<circle cx="28.5" cy="37.5" r="1.5" fill="#F25757"/>
<circle cx="66.5" cy="37.5" r="1.5" fill="#F25757"/>
<circle cx="84.5" cy="37.5" r="1.5" fill="#F25757"/>
<circle cx="102.5" cy="37.5" r="1.5" fill="#F25757"/>
<circle cx="1.5" cy="28.5" r="1.5" fill="#2F52E0"/>
<circle cx="37.5" cy="28.5" r="1.5" fill="#2F52E0"/>
<circle cx="19.5" cy="28.5" r="1.5" fill="#2F52E0"/>
<circle cx="57.5" cy="28.5" r="1.5" fill="#2F52E0"/>
<circle cx="75.5" cy="28.5" r="1.5" fill="#2F52E0"/>
<circle cx="93.5" cy="28.5" r="1.5" fill="#2F52E0"/>
<circle cx="10.5" cy="28.5" r="1.5" fill="#F25757"/>
<circle cx="46.5" cy="28.5" r="1.5" fill="#F25757"/>
<circle cx="28.5" cy="28.5" r="1.5" fill="#F25757"/>
<circle cx="66.5" cy="28.5" r="1.5" fill="#F25757"/>
<circle cx="84.5" cy="28.5" r="1.5" fill="#F25757"/>
<circle cx="102.5" cy="28.5" r="1.5" fill="#F25757"/>
<circle cx="1.5" cy="19.5" r="1.5" fill="#2F52E0"/>
<circle cx="37.5" cy="19.5" r="1.5" fill="#2F52E0"/>
<circle cx="19.5" cy="19.5" r="1.5" fill="#2F52E0"/>
<circle cx="57.5" cy="19.5" r="1.5" fill="#2F52E0"/>
<circle cx="75.5" cy="19.5" r="1.5" fill="#2F52E0"/>
<circle cx="93.5" cy="19.5" r="1.5" fill="#2F52E0"/>
<circle cx="10.5" cy="19.5" r="1.5" fill="#F25757"/>
<circle cx="46.5" cy="19.5" r="1.5" fill="#F25757"/>
<circle cx="28.5" cy="19.5" r="1.5" fill="#F25757"/>
<circle cx="66.5" cy="19.5" r="1.5" fill="#F25757"/>
<circle cx="84.5" cy="19.5" r="1.5" fill="#F25757"/>
<circle cx="102.5" cy="19.5" r="1.5" fill="#F25757"/>
<circle cx="1.5" cy="10.5" r="1.5" fill="#2F52E0"/>
<circle cx="37.5" cy="10.5" r="1.5" fill="#2F52E0"/>
<circle cx="19.5" cy="10.5" r="1.5" fill="#2F52E0"/>
<circle cx="57.5" cy="10.5" r="1.5" fill="#2F52E0"/>
<circle cx="75.5" cy="10.5" r="1.5" fill="#2F52E0"/>
<circle cx="93.5" cy="10.5" r="1.5" fill="#2F52E0"/>
<circle cx="10.5" cy="10.5" r="1.5" fill="#F25757"/>
<circle cx="46.5" cy="10.5" r="1.5" fill="#F25757"/>
<circle cx="28.5" cy="10.5" r="1.5" fill="#F25757"/>
<circle cx="66.5" cy="10.5" r="1.5" fill="#F25757"/>
<circle cx="84.5" cy="10.5" r="1.5" fill="#F25757"/>
<circle cx="102.5" cy="10.5" r="1.5" fill="#F25757"/>
<circle cx="1.5" cy="1.5" r="1.5" fill="#2F52E0"/>
<circle cx="37.5" cy="1.5" r="1.5" fill="#2F52E0"/>
<circle cx="19.5" cy="1.5" r="1.5" fill="#2F52E0"/>
<circle cx="57.5" cy="1.5" r="1.5" fill="#2F52E0"/>
<circle cx="75.5" cy="1.5" r="1.5" fill="#2F52E0"/>
<circle cx="93.5" cy="1.5" r="1.5" fill="#2F52E0"/>
<circle cx="10.5" cy="1.5" r="1.5" fill="#F25757"/>
<circle cx="46.5" cy="1.5" r="1.5" fill="#F25757"/>
<circle cx="28.5" cy="1.5" r="1.5" fill="#F25757"/>
<circle cx="66.5" cy="1.5" r="1.5" fill="#F25757"/>
<circle cx="84.5" cy="1.5" r="1.5" fill="#F25757"/>
<circle cx="102.5" cy="1.5" r="1.5" fill="#F25757"/>
</svg>
